<svg xmlns="http://www.w3.org/2000/svg" viewBox="0 0 64 64" fill="none">
  <rect width="64" height="64" rx="12" fill="#FFF9F5"/>
  <path
    d="M32 18C29.6 15.9 26.4 14.75 23 14.75H14.5C13.67 14.75 13 15.42 13 16.25V45.75C13 46.58 13.67 47.25 14.5 47.25H23C26.4 47.25 29.6 48.4 32 50.5M32 18C34.4 15.9 37.6 14.75 41 14.75H49.5C50.33 14.75 51 15.42 51 16.25V45.75C51 46.58 50.33 47.25 49.5 47.25H41C37.6 47.25 34.4 48.4 32 50.5M32 18V50.5"
    stroke="#8B1E2D"
    stroke-width="3.5"
    stroke-linecap="round"
    stroke-linejoin="round"
  />
</svg>
